<svg width="48" height="48" viewBox="0 0 24 24" fill="none" xmlns="http://www.w3.org/2000/svg"><rect width="24" height="24" fill="none" rx="0" ry="0"></rect><path fillRule="evenodd" clip-rule="evenodd" d="M19.3999 2.9999C19.3999 2.6699 19.6699 2.3999 19.9999 2.3999C20.3299 2.3999 20.5999 2.6699 20.5999 2.9999L20.5901 16.2517C20.5966 16.3336 20.5999 16.4164 20.5999 16.4999C20.5999 16.7399 20.5699 16.9699 20.5199 17.1799C20.2599 18.3599 19.3299 19.2799 18.1499 19.5299C17.9599 19.5699 17.7299 19.5999 17.4999 19.5999C15.7899 19.5999 14.3999 18.2099 14.3999 16.4999C14.3999 16.2699 14.4299 16.0399 14.4699 15.8399C14.5399 15.5099 14.8799 15.3199 15.1899 15.3899C15.5199 15.4599 15.7199 15.7899 15.6399 16.1099C15.6199 16.2299 15.5999 16.3599 15.5999 16.4999C15.5999 17.5499 16.4499 18.3999 17.4999 18.3999C17.6021 18.3999 17.699 18.3892 17.7867 18.3796L17.7867 18.3796C17.8191 18.376 17.8502 18.3726 17.8799 18.3699C18.6099 18.2099 19.1799 17.6499 19.3399 16.9199C19.3799 16.7899 19.3899 16.6499 19.3899 16.5099C19.3899 15.4599 18.5399 14.6099 17.4899 14.6099C17.3499 14.6099 17.2099 14.6199 17.0899 14.6499C16.7799 14.7199 16.4499 14.5199 16.3699 14.1999C16.2999 13.8799 16.4999 13.5599 16.8199 13.4799C17.0399 13.4299 17.2599 13.3999 17.4999 13.3999C18.2117 13.3999 18.868 13.6407 19.3917 14.0452L19.3999 2.9999ZM9.59952 5.50058L16.8999 4.16983C17.2299 4.10983 17.4399 3.79983 17.3799 3.46983C17.3199 3.13983 16.9999 2.92983 16.6799 2.98983L8.9351 4.4034C8.63527 4.43597 8.39989 4.69178 8.39989 4.9999L8.39171 16.0452C7.86799 15.6407 7.21167 15.3999 6.4999 15.3999C6.2599 15.3999 6.0399 15.4299 5.8199 15.4799C5.4999 15.5599 5.2999 15.8799 5.3699 16.1999C5.4499 16.5199 5.7799 16.7199 6.0899 16.6499C6.2099 16.6199 6.3499 16.6099 6.4899 16.6099C7.5399 16.6099 8.3899 17.4599 8.3899 18.5099C8.3899 18.6499 8.3799 18.7899 8.3399 18.9199C8.1799 19.6499 7.6099 20.2099 6.8799 20.3699C6.85028 20.3726 6.81922 20.376 6.78689 20.3796L6.78667 20.3796C6.69901 20.3892 6.60212 20.3999 6.4999 20.3999C5.4499 20.3999 4.5999 19.5499 4.5999 18.4999C4.5999 18.3599 4.6199 18.2299 4.6399 18.1099C4.7199 17.7899 4.5199 17.4599 4.1899 17.3899C3.8799 17.3199 3.5399 17.5099 3.4699 17.8399C3.4299 18.0399 3.3999 18.2699 3.3999 18.4999C3.3999 20.2099 4.7899 21.5999 6.4999 21.5999C6.7299 21.5999 6.9599 21.5699 7.1499 21.5299C8.3299 21.2799 9.2599 20.3599 9.5199 19.1799C9.5699 18.9699 9.5999 18.7399 9.5999 18.4999C9.5999 18.4164 9.59659 18.3336 9.59008 18.2517L9.59952 5.50058Z" fill="#ffffff"></path><path fillRule="evenodd" clip-rule="evenodd" d="M19.3999 2.9999C19.3999 2.6699 19.6699 2.3999 19.9999 2.3999C20.3299 2.3999 20.5999 2.6699 20.5999 2.9999L20.5901 16.2517C20.5966 16.3336 20.5999 16.4164 20.5999 16.4999C20.5999 16.7399 20.5699 16.9699 20.5199 17.1799C20.2599 18.3599 19.3299 19.2799 18.1499 19.5299C17.9599 19.5699 17.7299 19.5999 17.4999 19.5999C15.7899 19.5999 14.3999 18.2099 14.3999 16.4999C14.3999 16.2699 14.4299 16.0399 14.4699 15.8399C14.5399 15.5099 14.8799 15.3199 15.1899 15.3899C15.5199 15.4599 15.7199 15.7899 15.6399 16.1099C15.6199 16.2299 15.5999 16.3599 15.5999 16.4999C15.5999 17.5499 16.4499 18.3999 17.4999 18.3999C17.6021 18.3999 17.699 18.3892 17.7867 18.3796L17.7867 18.3796C17.8191 18.376 17.8502 18.3726 17.8799 18.3699C18.6099 18.2099 19.1799 17.6499 19.3399 16.9199C19.3799 16.7899 19.3899 16.6499 19.3899 16.5099C19.3899 15.4599 18.5399 14.6099 17.4899 14.6099C17.3499 14.6099 17.2099 14.6199 17.0899 14.6499C16.7799 14.7199 16.4499 14.5199 16.3699 14.1999C16.2999 13.8799 16.4999 13.5599 16.8199 13.4799C17.0399 13.4299 17.2599 13.3999 17.4999 13.3999C18.2117 13.3999 18.868 13.6407 19.3917 14.0452L19.3999 2.9999ZM9.59952 5.50058L16.8999 4.16983C17.2299 4.10983 17.4399 3.79983 17.3799 3.46983C17.3199 3.13983 16.9999 2.92983 16.6799 2.98983L8.9351 4.4034C8.63527 4.43597 8.39989 4.69178 8.39989 4.9999L8.39171 16.0452C7.86799 15.6407 7.21167 15.3999 6.4999 15.3999C6.2599 15.3999 6.0399 15.4299 5.8199 15.4799C5.4999 15.5599 5.2999 15.8799 5.3699 16.1999C5.4499 16.5199 5.7799 16.7199 6.0899 16.6499C6.2099 16.6199 6.3499 16.6099 6.4899 16.6099C7.5399 16.6099 8.3899 17.4599 8.3899 18.5099C8.3899 18.6499 8.3799 18.7899 8.3399 18.9199C8.1799 19.6499 7.6099 20.2099 6.8799 20.3699C6.85028 20.3726 6.81922 20.376 6.78689 20.3796L6.78667 20.3796C6.69901 20.3892 6.60212 20.3999 6.4999 20.3999C5.4499 20.3999 4.5999 19.5499 4.5999 18.4999C4.5999 18.3599 4.6199 18.2299 4.6399 18.1099C4.7199 17.7899 4.5199 17.4599 4.1899 17.3899C3.8799 17.3199 3.5399 17.5099 3.4699 17.8399C3.4299 18.0399 3.3999 18.2699 3.3999 18.4999C3.3999 20.2099 4.7899 21.5999 6.4999 21.5999C6.7299 21.5999 6.9599 21.5699 7.1499 21.5299C8.3299 21.2799 9.2599 20.3599 9.5199 19.1799C9.5699 18.9699 9.5999 18.7399 9.5999 18.4999C9.5999 18.4164 9.59659 18.3336 9.59008 18.2517L9.59952 5.50058Z" fill="#00d361"></path></svg>