<svg width="48" height="48" viewBox="0 0 24 24" fill="none" xmlns="http://www.w3.org/2000/svg"><rect width="24" height="24" fill="none" rx="0" ry="0"></rect><path fillRule="evenodd" clipRule="evenodd" d="M8.5 5.5C7.39543 5.5 6.5 6.39543 6.5 7.5V16.5C6.5 17.6046 7.39543 18.5 8.5 18.5C9.60457 18.5 10.5 17.6046 10.5 16.5V7.5C10.5 6.39543 9.60457 5.5 8.5 5.5ZM15.5 5.5C14.3954 5.5 13.5 6.39543 13.5 7.5V16.5C13.5 17.6046 14.3954 18.5 15.5 18.5C16.6046 18.5 17.5 17.6046 17.5 16.5V7.5C17.5 6.39543 16.6046 5.5 15.5 5.5Z" fill="#00d361"></path><path fillRule="evenodd" clipRule="evenodd" d="M6.5 7.5C6.5 6.39543 7.39543 5.5 8.5 5.5C9.60457 5.5 10.5 6.39543 10.5 7.5V9.77359V16.5C10.5 17.6046 9.60457 18.5 8.5 18.5C7.39543 18.5 6.5 17.6046 6.5 16.5V13.2562V7.5Z" fill="#A4B0BE" fillOpacity="0.3"></path><path fillRule="evenodd" clipRule="evenodd" d="M8.5 5C7.11929 5 6 6.11929 6 7.5V11.9C6 12.2314 6.26863 12.5 6.6 12.5C6.93137 12.5 7.2 12.2314 7.2 11.9V11V7.5C7.2 6.78203 7.78203 6.2 8.5 6.2C9.21797 6.2 9.8 6.78203 9.8 7.5V16.5C9.8 17.218 9.21797 17.8 8.5 17.8C7.78203 17.8 7.2 17.218 7.2 16.5V15V14.6C7.2 14.2686 6.93137 14 6.6 14C6.26863 14 6 14.2686 6 14.6V16.5C6 17.8807 7.11929 19 8.5 19C9.88071 19 11 17.8807 11 16.5V7.5C11 6.11929 9.88071 5 8.5 5ZM13 7.5C13 6.11929 14.1193 5 15.5 5C16.8807 5 18 6.11929 18 7.5V16.5C18 17.8807 16.8807 19 15.5 19C14.1193 19 13 17.8807 13 16.5V12.1C13 11.7686 13.2686 11.5 13.6 11.5C13.9314 11.5 14.2 11.7686 14.2 12.1V12.5V16.5C14.2 17.218 14.782 17.8 15.5 17.8C16.218 17.8 16.8 17.218 16.8 16.5V7.5C16.8 6.78203 16.218 6.2 15.5 6.2C14.782 6.2 14.2 6.78203 14.2 7.5V9V9.4C14.2 9.73137 13.9314 10 13.6 10C13.2686 10 13 9.73137 13 9.4V7.5Z" fill="#ffffff"></path></svg>