<svg width="24" height="24" viewBox="0 0 24 24" fill="none" xmlns="http://www.w3.org/2000/svg"><rect width="24" height="24" fill="none" rx="0" ry="0"></rect><path fillRule="evenodd" clip-rule="evenodd" d="M6.5 5.86852C6.5 5.06982 7.39015 4.59343 8.0547 5.03647L17.2519 11.168C17.8457 11.5638 17.8457 12.4362 17.2519 12.8321L8.0547 18.9635C7.39014 19.4066 6.5 18.9302 6.5 18.1315V5.86852Z" fill="#00d361"></path><path fillRule="evenodd" clip-rule="evenodd" d="M6.5 5.86852C6.5 5.06982 7.39015 4.59343 8.0547 5.03647L17.2519 11.168C17.8457 11.5638 17.8457 12.4362 17.2519 12.8321L8.0547 18.9635C7.39014 19.4066 6.5 18.9302 6.5 18.1315V5.86852Z" fill="#60A3BC" fillOpacity="0.01"></path><path fillRule="evenodd" clip-rule="evenodd" d="M8.31114 4.48573C7.31287 3.84399 6 4.56075 6 5.7475V8.39784C6 8.7304 6.26959 9 6.60216 9C6.9102 9 7.16422 8.76869 7.2 8.47029V6.11479C7.2 5.71943 7.6372 5.48047 7.96998 5.69395L17.144 11.5792C17.4507 11.7759 17.4507 12.2241 17.144 12.4208L7.96998 18.3061C7.6372 18.5195 7.2 18.2806 7.2 17.8852V15.5297C7.16422 15.2313 6.9102 15 6.60216 15C6.26959 15 6 15.2696 6 15.6022V18.2525C6 19.4392 7.31287 20.156 8.31114 19.5143L18.0373 13.2618C18.9557 12.6713 18.9557 11.3287 18.0372 10.7382L8.31114 4.48573ZM7.2 13.4703V10.5297C7.16422 10.2313 6.9102 10 6.60216 10C6.26959 10 6 10.2696 6 10.6022V13.3978C6 13.7304 6.26959 14 6.60216 14C6.9102 14 7.16422 13.7687 7.2 13.4703Z" fill="#ffffff"></path></svg>