<svg width="18" height="18" viewBox="0 0 18 18" fill="none" xmlns="http://www.w3.org/2000/svg">
<path fillRule="evenodd" clip-rule="evenodd" d="M11.25 10.5978C12.5951 9.75487 13.5 8.17943 13.5 6.375C13.5 3.68261 11.4853 1.5 9 1.5C6.51472 1.5 4.5 3.68261 4.5 6.375C4.5 8.17943 5.40495 9.75487 6.75 10.5978V11.85C6.75 11.85 7.5 12.6 9 12.6C10.5 12.6 11.25 11.85 11.25 11.85V10.5978Z" fill="#00D361"/>
<path fillRule="evenodd" clip-rule="evenodd" d="M9.00008 11.25H9H8.99992H9H9.00008ZM6.75 11.6893V11.85C6.75 11.85 7.5 12.6 9 12.6C10.5 12.6 11.25 11.85 11.25 11.85V11.6922L12.791 12.1269C14.1468 12.5093 15.1739 13.6193 15.4502 15.0006L15.75 16.5H2.25L2.55024 14.9988C2.82632 13.6184 3.8522 12.509 5.20677 12.1259L6.75 11.6893Z" fill="white"/>
<path fillRule="evenodd" clip-rule="evenodd" d="M11.25 10.5978C10.5881 11.0126 9.81968 11.25 9 11.25C8.18032 11.25 7.41189 11.0126 6.75 10.5978V11.85C6.75 11.85 7.5 12.6 9 12.6C10.5 12.6 11.25 11.85 11.25 11.85V10.5978Z" fill="black" fillOpacity="0.3"/>
</svg>
